<?xml version="1.0" encoding="UTF-8"?>
<svg width="26px" height="27px" viewBox="0 0 26 27" version="1.1" xmlns="http://www.w3.org/2000/svg" xmlns:xlink="http://www.w3.org/1999/xlink">
    <!-- Generator: Sketch 58 (84663) - https://sketch.com -->
    <title>google</title>
    <desc>Created with Sketch.</desc>
    <g id="UI-checklist" stroke="none" stroke-width="1" fill="none" fill-rule="evenodd">
        <g id="btn-share" transform="translate(-298.000000, -89.000000)" fill="#FFFFFF">
            <g id="FBG-sign-up" transform="translate(151.000000, 80.000000)">
                <path d="M150.782667,32.1081441 C145.704399,26.9554227 145.704399,17.9381014 150.994174,12.7856158 C154.802933,8.9210158 160.304215,8.06234682 165.170975,9.99452891 L167.075238,11.068042 L169.191241,12.5710075 L165.80573,16.0061551 L164.536221,15.1474861 C161.573956,13.215304 157.34195,13.6445206 154.591426,16.4356075 C151.417421,19.6561468 151.205914,25.4529289 154.591426,28.8880765 C157.76543,32.3232241 163.478452,32.3232241 166.440716,28.8880765 C167.286978,28.0294075 168.133472,26.7410503 168.345212,25.4529289 L168.345212,25.0234765 L160.727694,25.0234765 L160.727694,20.7296599 L172.788493,20.7296599 L173,21.803173 L173,24.8088682 C172.788493,27.5999551 171.730491,30.391042 169.825996,32.3232241 C164.747961,37.2608655 155.860934,37.2608655 150.782667,32.1081441" id="google"></path>
            </g>
        </g>
    </g>
</svg>